<svg width="16" height="16" viewBox="0 0 16 16" fill="none" xmlns="http://www.w3.org/2000/svg">
<path d="M10.0003 2L11.2201 3.33301H13.3333C14.0667 3.33301 14.6664 3.93366 14.6664 4.66699V12.667C14.6662 13.4002 14.0666 14 13.3333 14H2.66635C1.93327 13.9998 1.33352 13.4001 1.33334 12.667V4.66699C1.33334 3.93377 1.93317 3.33319 2.66635 3.33301H4.77963L6.00034 2H10.0003ZM8.00034 5.33301C6.16034 5.33301 4.66635 6.82699 4.66635 8.66699C4.66653 10.5068 6.16044 12 8.00034 12C9.84008 11.9998 11.3332 10.5067 11.3333 8.66699C11.3333 6.8271 9.84019 5.33318 8.00034 5.33301ZM8.00034 6.5332C9.17839 6.53338 10.1331 7.48889 10.1331 8.66699C10.133 9.84494 9.17828 10.7996 8.00034 10.7998C6.82224 10.7998 5.86672 9.84505 5.86655 8.66699C5.86655 7.48878 6.82213 6.5332 8.00034 6.5332Z" fill="#969696"/>
</svg>
